<svg width="154" height="129" viewBox="0 0 154 129" fill="none" xmlns="http://www.w3.org/2000/svg">
<path d="M69.624 1.00928C71.8046 -0.281899 74.5021 -0.337671 76.7344 0.861816L149.88 40.1685C152.226 41.4293 153.689 43.8773 153.689 46.5405V81.8403C153.689 84.3974 152.339 86.7649 150.139 88.0669L83.1777 127.678C80.9758 128.981 78.2494 129.024 76.0078 127.791L3.74805 88.0435C1.43668 86.772 1.41263e-05 84.3426 0 81.7046V46.3599C0.000105083 43.8041 1.34879 41.4376 3.54785 40.1353L69.624 1.00928ZM76.0244 2.18311C74.255 1.23235 72.1161 1.27584 70.3877 2.29932L4.3125 41.4263C2.5694 42.4586 1.50011 44.334 1.5 46.3599V81.7046C1.50001 83.7956 2.63862 85.7211 4.4707 86.729L76.7314 126.477C78.5082 127.454 80.6688 127.42 82.4141 126.387L149.375 86.7759C151.119 85.7438 152.189 83.8672 152.189 81.8403V46.5405C152.189 44.4293 151.029 42.4891 149.169 41.4897L76.0244 2.18311Z" fill="#F4DBBB"/>
</svg>
