<svg width="18" height="13" viewBox="0 0 18 13" fill="none" xmlns="http://www.w3.org/2000/svg">
<path d="M3.1001 10.6001C3.1001 11.0421 3.27569 11.466 3.58825 11.7786C3.90081 12.0912 4.32474 12.2668 4.76676 12.2668C5.20879 12.2668 5.63271 12.0912 5.94528 11.7786C6.25784 11.466 6.43343 11.0421 6.43343 10.6001M3.1001 10.6001C3.1001 10.1581 3.27569 9.73415 3.58825 9.42159C3.90081 9.10903 4.32474 8.93343 4.76676 8.93343C5.20879 8.93343 5.63271 9.10903 5.94528 9.42159C6.25784 9.73415 6.43343 10.1581 6.43343 10.6001M3.1001 10.6001H1.43343V7.26676M6.43343 10.6001H11.4334M11.4334 10.6001C11.4334 11.0421 11.609 11.466 11.9216 11.7786C12.2341 12.0912 12.6581 12.2668 13.1001 12.2668C13.5421 12.2668 13.966 12.0912 14.2786 11.7786C14.5912 11.466 14.7668 11.0421 14.7668 10.6001M11.4334 10.6001C11.4334 10.1581 11.609 9.73415 11.9216 9.42159C12.2341 9.10903 12.6581 8.93343 13.1001 8.93343C13.5421 8.93343 13.966 9.10903 14.2786 9.42159C14.5912 9.73415 14.7668 10.1581 14.7668 10.6001M14.7668 10.6001H16.4334V5.6001M0.600098 0.600098H9.76676V10.6001M16.4334 5.6001H9.76676M16.4334 5.6001L13.9334 1.43343H9.76676M1.43343 3.93343H4.76676" stroke="#FAEFDF" stroke-width="1.2" stroke-linecap="round" stroke-linejoin="round"/>
</svg>
