<svg width="20" height="20" viewBox="0 0 20 20" fill="none" xmlns="http://www.w3.org/2000/svg">
<path d="M18.275 5.63318L15.4667 16.9082C15.2667 17.7499 14.5167 18.3332 13.65 18.3332H2.70003C1.44169 18.3332 0.541706 17.0998 0.916706 15.8915L4.42503 4.62488C4.6667 3.84154 5.39171 3.2998 6.20838 3.2998H16.4584C17.25 3.2998 17.9084 3.78314 18.1834 4.44981C18.3417 4.80814 18.375 5.21651 18.275 5.63318Z" stroke="#FAEFDF" stroke-width="1.2" stroke-miterlimit="10"/>
<path d="M13.3333 18.3333H17.3166C18.3916 18.3333 19.2332 17.425 19.1582 16.35L18.3333 5" stroke="#FAEFDF" stroke-width="1.2" stroke-miterlimit="10" stroke-linecap="round" stroke-linejoin="round"/>
<path d="M8.06665 5.31675L8.93332 1.7168" stroke="#FAEFDF" stroke-width="1.2" stroke-miterlimit="10" stroke-linecap="round" stroke-linejoin="round"/>
<path d="M13.6499 5.32513L14.4332 1.7085" stroke="#FAEFDF" stroke-width="1.2" stroke-miterlimit="10" stroke-linecap="round" stroke-linejoin="round"/>
<path d="M6.41675 10H13.0834" stroke="#FAEFDF" stroke-width="1.2" stroke-miterlimit="10" stroke-linecap="round" stroke-linejoin="round"/>
<path d="M5.58325 13.3335H12.2499" stroke="#FAEFDF" stroke-width="1.2" stroke-miterlimit="10" stroke-linecap="round" stroke-linejoin="round"/>
</svg>
