<svg width="306" height="82" viewBox="0 0 306 82" fill="none" xmlns="http://www.w3.org/2000/svg">
<path d="M48.9256 49.7791C48.9256 54.2469 48.9199 58.7857 48.9199 58.7857L50.2845 62.7678H42.8145L44.2019 58.7715V49.7791H48.9256Z" fill="#3A181D"/>
<path d="M0.0396355 36.2959C-0.0230426 33.5295 -0.0258916 30.8085 0.130804 28.0335C1.27325 12.105 15.2505 -0.142502 31.1223 -0.000486432C45.7262 -0.0885363 59.1678 10.699 61.5468 25.2073C61.8373 26.8973 61.9769 28.6697 61.9997 30.3796L61.9826 38.1478H57.0396V29.5786C57.0396 29.5786 57.0168 27.0876 56.8772 25.8805C55.7547 15.1924 47.8117 5.754 37.2562 3.22896C22.4841 -0.440736 7.95701 9.40665 5.39576 24.2274C5.15359 25.5567 5.03109 26.9286 4.98835 28.2806C4.98265 29.962 5.05103 31.7145 5.04248 33.4102C5.04248 34.1714 5.03394 34.9298 5.01684 35.6853H37.863V38.1478H17.826V58.76C17.7604 58.76 19.2134 62.7677 19.2134 62.7677H11.7433C11.7433 62.7677 13.1308 58.8254 13.1308 58.76V38.1478H0.0396355V36.2959Z" fill="#3A181D"/>
<path d="M62.0336 47.3504C62.0336 49.5659 62.0393 51.8921 61.8855 54.1075C61.6433 57.0785 60.9596 60.0296 59.8541 62.7932C53.6832 78.0628 36.2701 85.6322 20.7601 80.2896C12.9852 77.6083 6.35842 71.8169 2.85985 64.3554C0.819962 60.0921 -0.0318893 55.3033 0.0136947 50.5912L0.0478827 42.7349H4.9909V43.9648L4.9966 52.2443C4.47523 66.835 16.1419 79.5824 30.9824 79.5341C45.139 79.6874 56.7858 67.7496 57.0393 53.8377C57.0536 51.716 56.9653 49.475 56.9909 47.3533C56.9852 46.6347 56.9994 45.9189 57.0137 45.2003H24.1846V42.7377H44.2046V30.0074C44.2046 30.0074 44.2274 28.9395 44.2359 28.2834C44.196 23.523 41.6718 18.6774 37.441 16.2631C28.8598 11.409 18.9994 17.2658 17.9111 26.7354C17.7715 27.7806 17.8143 28.9508 17.8285 30.0074V31.1066H13.1305V30.0074C13.1447 28.6867 13.1789 27.312 13.4496 26.0168C14.9596 17.8338 22.8826 12.1219 31.0222 12.21C37.6946 12.1617 44.3755 15.9592 47.29 22.0773C48.1846 23.9462 48.7288 26.0083 48.8627 28.0845C48.8883 28.6043 48.9054 29.1468 48.9254 30.0046C48.9339 30.5158 48.9339 36.222 48.9339 42.7349H61.9795V44.0386H61.9852C62.0194 45.1406 62.0365 46.2484 62.0365 47.3504H62.0336Z" fill="#3A181D"/>
<path d="M23.8547 68.8457C23.8547 68.8201 23.8461 68.8002 23.8319 68.786C23.8177 68.769 23.7749 68.7576 23.7094 68.7519V68.6895H25.7151C25.8604 68.6895 25.9914 68.7037 26.1111 68.7321C26.2308 68.7605 26.3333 68.8031 26.4216 68.8599C26.51 68.9167 26.5783 68.9934 26.6268 69.0843C26.6752 69.1751 26.7008 69.2888 26.7008 69.4166C26.7008 69.5728 26.6524 69.7006 26.5584 69.7972C26.4644 69.8938 26.3419 69.9562 26.1937 69.9875V69.9988C26.3732 70.0471 26.5185 70.1238 26.6325 70.2232C26.7464 70.3226 26.8034 70.4732 26.8034 70.6692C26.8034 70.7742 26.7835 70.8737 26.7436 70.9674C26.7037 71.0611 26.641 71.1435 26.5527 71.2145C26.4672 71.2855 26.3561 71.3395 26.2222 71.3821C26.0883 71.4247 25.9259 71.4446 25.7407 71.4446H23.7065V71.3821C23.7721 71.3764 23.8148 71.365 23.8291 71.348C23.8461 71.3309 23.8518 71.3111 23.8518 71.2883V68.84L23.8547 68.8457ZM25.3618 69.729C25.4729 69.729 25.5669 69.729 25.641 69.7205C25.7151 69.7148 25.7721 69.7034 25.8148 69.6864C25.8575 69.6694 25.886 69.6438 25.9031 69.6126C25.9202 69.5813 25.9288 69.5387 25.9288 69.4876C25.9288 69.4365 25.9202 69.3939 25.9031 69.3626C25.886 69.3314 25.8547 69.3058 25.8148 69.2888C25.7749 69.2717 25.7151 69.2604 25.641 69.2547C25.5669 69.249 25.4729 69.2462 25.3618 69.2462H24.6467V69.729H25.3618ZM25.5413 70.8935C25.7322 70.8935 25.8632 70.8708 25.9402 70.8225C26.0171 70.7742 26.057 70.6947 26.057 70.5783C26.057 70.4618 26.0171 70.3823 25.9402 70.334C25.8632 70.2857 25.7293 70.263 25.5413 70.263H24.6467V70.8935H25.5413Z" fill="#3A181D"/>
<path d="M28.1594 71.3338C28.1594 71.3508 28.1651 71.365 28.1765 71.3736C28.1879 71.3821 28.2135 71.3878 28.2534 71.3878V71.4502H27.3218V71.3878C27.3617 71.3821 27.3873 71.3707 27.4072 71.3537C27.4243 71.3366 27.4414 71.3082 27.4585 71.2656C27.4671 71.2486 27.4842 71.2003 27.5127 71.1236C27.5412 71.0469 27.5782 70.9503 27.6238 70.8311C27.6694 70.7146 27.7206 70.5839 27.7776 70.4391C27.8346 70.2971 27.8887 70.1494 27.9457 70.0017C28.0027 69.854 28.0568 69.7063 28.111 69.5671C28.1651 69.4251 28.2135 69.2973 28.2562 69.1865C28.299 69.0757 28.3332 68.9848 28.3588 68.9138C28.3845 68.8428 28.3987 68.8059 28.3987 68.8031C28.3987 68.786 28.3873 68.7747 28.3645 68.7661C28.3417 68.7605 28.3189 68.7548 28.2933 68.7519V68.6895H29.6694V68.7519C29.6409 68.7548 29.6181 68.7605 29.601 68.7661C29.5839 68.7747 29.5753 68.7917 29.5753 68.8201C29.5753 68.8258 29.5924 68.8712 29.6238 68.9564C29.6551 69.0417 29.7007 69.1496 29.752 69.2859C29.8061 69.4194 29.8659 69.5728 29.9343 69.7432C30.0027 69.9136 30.0739 70.0869 30.148 70.263C30.2221 70.4391 30.2933 70.6123 30.3617 70.7799C30.43 70.9475 30.4927 71.098 30.5497 71.2315C30.5782 71.294 30.601 71.3366 30.6209 71.3565C30.6409 71.3764 30.6665 71.3878 30.6978 71.3878V71.4502H29.6608V71.3878C29.7263 71.3849 29.7605 71.3622 29.7605 71.3253C29.7605 71.3224 29.752 71.2969 29.7349 71.2543C29.7178 71.2117 29.6978 71.1605 29.6751 71.1066C29.6551 71.0526 29.6352 71.0015 29.6152 70.9503C29.5953 70.9021 29.5839 70.868 29.581 70.8509H28.3332C28.299 70.9447 28.2705 71.0214 28.2506 71.081C28.2306 71.1406 28.2135 71.1889 28.1993 71.223C28.185 71.2571 28.1793 71.2827 28.1736 71.2997C28.1679 71.3167 28.1651 71.3281 28.1651 71.3338H28.1594ZM29.4386 70.4306L28.9286 69.1808L28.4585 70.4306H29.4386Z" fill="#3A181D"/>
<path d="M33.416 71.3878C33.4473 71.3878 33.4729 71.3878 33.49 71.3793C33.5071 71.3736 33.5157 71.3538 33.5157 71.3197C33.5157 71.3083 33.4986 71.2771 33.4672 71.2259C33.4359 71.1748 33.396 71.1095 33.3476 71.0328C33.2991 70.9561 33.2422 70.8737 33.1852 70.7857C33.1254 70.6976 33.0684 70.6153 33.0171 70.5329C32.9658 70.4534 32.9174 70.3824 32.8746 70.3227C32.8319 70.2631 32.8034 70.2233 32.7892 70.2034L32.2735 70.6664V71.297C32.2735 71.3225 32.2821 71.3424 32.2963 71.3566C32.3134 71.3736 32.3533 71.385 32.4217 71.3907V71.4532H31.3362V71.3907C31.4017 71.385 31.4444 71.3736 31.4587 71.3566C31.4729 71.3396 31.4815 71.3197 31.4815 71.297V68.8486C31.4815 68.823 31.4729 68.8032 31.4587 68.789C31.4444 68.7719 31.4017 68.7606 31.3362 68.7549V68.6924H32.4217V68.7549C32.3561 68.7606 32.3134 68.7719 32.2963 68.789C32.2821 68.8032 32.2735 68.8259 32.2735 68.8486V69.7944H32.3105C32.416 69.6922 32.5299 69.5871 32.6496 69.4791C32.7721 69.3712 32.8832 69.269 32.9858 69.1781C33.0883 69.0843 33.1738 69.0077 33.2422 68.9423C33.3105 68.877 33.3447 68.8372 33.3447 68.823C33.3447 68.7918 33.3362 68.7719 33.3191 68.7691C33.302 68.7634 33.2792 68.7606 33.2507 68.7549V68.6924H34.5897V68.7549C34.5556 68.7577 34.5271 68.7634 34.5043 68.7691C34.4815 68.7776 34.4615 68.7861 34.4416 68.8003C34.4217 68.8145 34.4017 68.8316 34.3789 68.8514C34.3561 68.8713 34.3276 68.894 34.2963 68.9224L33.3846 69.7035L34.4587 71.3055C34.4872 71.3481 34.5128 71.3708 34.5385 71.3793C34.5641 71.385 34.5926 71.3907 34.6268 71.3907V71.4532H33.4217V71.3907L33.416 71.3878Z" fill="#3A181D"/>
<path d="M37.4244 68.8457C37.4244 68.8201 37.4158 68.8002 37.4016 68.786C37.3845 68.769 37.3446 68.7576 37.2762 68.7519V68.6895H38.3617V68.7519C38.2962 68.7576 38.2534 68.769 38.2392 68.786C38.2249 68.8002 38.2164 68.8229 38.2164 68.8457V70.2545C38.2164 70.4845 38.1794 70.6805 38.1024 70.8367C38.0255 70.993 37.923 71.1208 37.7919 71.2145C37.6608 71.3082 37.507 71.3736 37.3275 71.4105C37.1509 71.4474 36.96 71.4644 36.7606 71.4644C36.5611 71.4644 36.3702 71.4474 36.1936 71.4105C36.017 71.3736 35.8631 71.3082 35.7292 71.2145C35.5953 71.1208 35.4928 70.993 35.4187 70.8367C35.3446 70.6805 35.3047 70.4845 35.3047 70.2545V68.8457C35.3047 68.8201 35.2962 68.8002 35.2819 68.786C35.2677 68.769 35.225 68.7576 35.1594 68.7519V68.6895H36.2449V68.7519C36.1794 68.7576 36.1366 68.769 36.1224 68.786C36.1053 68.8002 36.0996 68.8229 36.0996 68.8457V70.2545C36.0996 70.4561 36.1566 70.6038 36.2734 70.6919C36.3902 70.7799 36.5526 70.8225 36.7634 70.8225C36.9742 70.8225 37.1366 70.7799 37.2534 70.6919C37.3702 70.6038 37.4272 70.459 37.4272 70.2545V68.8457H37.4244Z" fill="#3A181D"/>
<path d="M79.1821 43.2516C79.5383 43.1976 79.8203 43.0187 80.0254 42.7176C80.2306 42.4165 80.43 42.0757 80.6237 41.6923L88.242 25.7212C88.4328 25.3661 88.6066 25.0366 88.7576 24.7356C88.9086 24.4345 88.9827 24.176 88.9827 23.9545C88.9827 23.6818 88.8858 23.4887 88.695 23.3807C88.5041 23.2728 88.2961 23.1904 88.0767 23.1336V22.3951H95.0368V23.1336C94.8459 23.1876 94.6522 23.2643 94.4613 23.358C94.2704 23.4546 94.1736 23.6534 94.1736 23.9545C94.1736 24.1732 94.222 24.3919 94.3189 24.6106C94.4157 24.8293 94.5582 25.1162 94.7519 25.474L103.319 42.1836C103.456 42.4847 103.641 42.7034 103.874 42.8398C104.108 42.9761 104.376 43.1124 104.678 43.2516V43.9901H97.43V43.2516C97.5383 43.2516 97.6779 43.2118 97.8431 43.1295C98.0083 43.0471 98.091 42.925 98.091 42.7602C98.091 42.4876 97.9799 42.1297 97.7605 41.6923L96.1964 38.6531H86.1479L84.6665 41.5673C84.393 42.141 84.2534 42.5529 84.2534 42.8C84.2534 43.1011 84.5126 43.2516 85.0368 43.2516V43.9901H79.1878V43.2516H79.1821ZM94.7063 35.614L91.2477 27.9764L87.3759 35.614H94.7063Z" fill="#3A181D"/>
<path d="M129.422 44.7683C129.422 44.3565 129.291 44.1264 129.031 44.0696C128.769 44.0156 128.433 43.9872 128.023 43.9872H108.422V43.2488C109.245 43.2488 109.658 43.0017 109.658 42.5103V23.8721C109.658 23.3807 109.245 23.1336 108.422 23.1336V22.3951H115.504V23.1336C114.735 23.1336 114.35 23.3807 114.35 23.8721V40.2125H128.023C128.436 40.2125 128.769 40.1159 129.031 39.9256C129.293 39.7353 129.422 39.474 129.422 39.1445H130.162V44.7683H129.422Z" fill="#3A181D"/>
<path d="M147.251 22.3951C148.513 22.3951 149.735 22.4974 150.917 22.7019C152.097 22.9064 153.14 23.2359 154.046 23.6875C154.952 24.1391 155.678 24.727 156.228 25.4513C156.778 26.1756 157.051 27.0731 157.051 28.1411C157.051 29.4278 156.652 30.419 155.858 31.1178C155.06 31.8165 154.114 32.3561 153.017 32.7396V32.822C154.308 33.2054 155.399 33.8132 156.291 34.6483C157.182 35.4833 157.63 36.6819 157.63 38.2413C157.63 39.0621 157.45 39.8233 157.094 40.5192C156.738 41.2179 156.208 41.8258 155.51 42.3455C154.809 42.8653 153.952 43.2686 152.934 43.5555C151.917 43.8424 150.766 43.9872 149.476 43.9872H134.362V43.2488C135.131 43.2488 135.516 43.0017 135.516 42.5103V23.8721C135.516 23.3807 135.131 23.1336 134.362 23.1336V22.3951H147.251ZM148.074 30.8508C149.311 30.8508 150.333 30.6946 151.142 30.3793C151.952 30.064 152.356 29.4022 152.356 28.3882C152.356 27.3742 151.952 26.7124 151.142 26.3972C150.333 26.0819 149.311 25.9257 148.074 25.9257H140.208V30.8508H148.074ZM148.074 40.2125C149.803 40.2125 151.046 39.9455 151.801 39.4115C152.556 38.8775 152.932 38.1731 152.932 37.2983C152.932 36.4235 152.553 35.7191 151.801 35.1851C151.046 34.6511 149.803 34.3841 148.074 34.3841H140.208V40.2153H148.074V40.2125Z" fill="#3A181D"/>
<path d="M170.148 23.1336C169.544 23.1336 169.242 23.3807 169.242 23.8721V36.1877C169.242 37.9118 169.798 39.0962 170.909 39.7381C172.02 40.3829 173.647 40.7038 175.789 40.7038C177.932 40.7038 179.558 40.3829 180.669 39.7381C181.781 39.0962 182.336 37.9118 182.336 36.1877V23.8721C182.336 23.3807 181.923 23.1336 181.1 23.1336V22.3951H187.689V23.1336C187.031 23.1336 186.701 23.3807 186.701 23.8721V35.9832C186.701 37.5994 186.467 38.9315 186 39.9852C185.533 41.039 184.832 41.8797 183.9 42.5103C182.966 43.1408 181.806 43.564 180.422 43.7827C179.034 44.0014 177.436 44.1122 175.624 44.1122C173.812 44.1122 172.214 44.0014 170.826 43.7827C169.439 43.564 168.279 43.1408 167.347 42.5103C166.413 41.8797 165.715 41.039 165.248 39.9852C164.781 38.9315 164.547 37.5965 164.547 35.9832V23.8721C164.547 23.3807 164.162 23.1336 163.393 23.1336V22.3951H170.148V23.1336Z" fill="#3A181D"/>
<path d="M213.057 23.8721C213.057 23.3807 212.755 23.1336 212.151 23.1336V22.3951H218.493V23.1336C218.299 23.1336 218.128 23.1961 217.977 23.3182C217.826 23.4404 217.752 23.625 217.752 23.8721V42.5103C217.752 42.7574 217.826 42.942 217.977 43.0641C218.128 43.1863 218.299 43.2488 218.493 43.2488V43.9872H212.151V43.2488C212.755 43.2488 213.057 43.0017 213.057 42.5103V34.7931H199.797V42.5103C199.797 42.7574 199.872 42.942 200.023 43.0641C200.174 43.1863 200.344 43.2488 200.538 43.2488V43.9872H194.319V43.2488C194.84 43.2488 195.102 43.0017 195.102 42.5103V23.8721C195.102 23.3807 194.84 23.1336 194.319 23.1336V22.3951H200.538V23.1336C200.344 23.1336 200.174 23.1961 200.023 23.3182C199.872 23.4404 199.797 23.625 199.797 23.8721V30.8508H213.057V23.8721Z" fill="#3A181D"/>
<path d="M223.311 43.2516C223.667 43.1976 223.949 43.0187 224.154 42.7176C224.359 42.4165 224.558 42.0757 224.752 41.6923L232.37 25.7212C232.561 25.3661 232.735 25.0366 232.886 24.7356C233.037 24.4345 233.111 24.176 233.111 23.9545C233.111 23.6818 233.014 23.4887 232.823 23.3807C232.63 23.2728 232.424 23.1904 232.205 23.1336V22.3951H239.165V23.1336C238.972 23.1876 238.781 23.2643 238.59 23.358C238.396 23.4546 238.302 23.6534 238.302 23.9545C238.302 24.1732 238.35 24.3919 238.447 24.6106C238.544 24.8293 238.687 25.1162 238.88 25.474L247.444 42.1836C247.581 42.4847 247.766 42.7034 248 42.8398C248.234 42.9761 248.501 43.1124 248.803 43.2516V43.9901H241.556V43.2516C241.664 43.2516 241.803 43.2118 241.969 43.1295C242.134 43.0471 242.217 42.925 242.217 42.7602C242.217 42.4876 242.108 42.1297 241.886 41.6923L240.322 38.6531H230.274L228.792 41.5673C228.519 42.141 228.379 42.5529 228.379 42.8C228.379 43.1011 228.641 43.2516 229.162 43.2516V43.9901H223.313V43.2516H223.311ZM238.838 35.614L235.379 27.9764L231.507 35.614H238.838Z" fill="#3A181D"/>
<path d="M267.293 22.3951C268.61 22.3951 269.806 22.5116 270.875 22.7445C271.946 22.9774 272.866 23.3466 273.635 23.8522C274.405 24.3578 274.994 25.0168 275.405 25.8234C275.818 26.6301 276.023 27.6242 276.023 28.8001C276.023 30.6065 275.487 31.9897 274.416 32.9469C273.345 33.9041 271.903 34.5489 270.091 34.8755L275.567 42.675C275.758 42.9477 275.986 43.1124 276.245 43.1664C276.504 43.2204 276.746 43.2488 276.966 43.2488V43.9872H269.265V43.2488C269.513 43.2488 269.724 43.209 269.903 43.1266C270.08 43.0443 270.171 42.9363 270.171 42.7972C270.171 42.658 270.117 42.5018 270.006 42.3257C269.895 42.1496 269.732 41.9081 269.513 41.6071L264.983 35.2021H259.094V42.5103C259.094 42.7574 259.182 42.942 259.362 43.0641C259.541 43.1863 259.863 43.2488 260.33 43.2488V43.9872H253.205V43.2488C254 43.2488 254.399 43.0017 254.399 42.5103V23.8721C254.399 23.3807 254 23.1336 253.205 23.1336V22.3951H267.291H267.293ZM266.222 32.0011C267.211 32.0011 268.034 31.9273 268.692 31.7767C269.35 31.6262 269.872 31.4132 270.256 31.1405C270.641 30.8678 270.914 30.544 271.08 30.1748C271.245 29.8055 271.328 29.4022 271.328 28.9648C271.328 28.5274 271.245 28.1241 271.08 27.7548C270.914 27.3856 270.641 27.0646 270.256 26.7891C269.872 26.5164 269.35 26.3034 268.692 26.1529C268.034 26.0023 267.208 25.9285 266.222 25.9285H259.097V32.0039H266.222V32.0011Z" fill="#3A181D"/>
<path d="M280.51 43.2516C280.866 43.1976 281.148 43.0187 281.353 42.7176C281.558 42.4165 281.758 42.0757 281.952 41.6923L289.57 25.7212C289.761 25.3661 289.935 25.0366 290.086 24.7356C290.237 24.4345 290.311 24.176 290.311 23.9545C290.311 23.6818 290.214 23.4887 290.023 23.3807C289.832 23.2728 289.624 23.1904 289.405 23.1336V22.3951H296.365V23.1336C296.174 23.1876 295.98 23.2643 295.789 23.358C295.598 23.4546 295.501 23.6534 295.501 23.9545C295.501 24.1732 295.55 24.3919 295.647 24.6106C295.744 24.8293 295.886 25.1162 296.08 25.474L304.647 42.1836C304.784 42.4847 304.969 42.7034 305.202 42.8398C305.436 42.9761 305.704 43.1124 306.006 43.2516V43.9901H298.758V43.2516C298.866 43.2516 299.006 43.2118 299.171 43.1295C299.336 43.0471 299.419 42.925 299.419 42.7602C299.419 42.4876 299.308 42.1297 299.088 41.6923L297.524 38.6531H287.476L285.994 41.5673C285.721 42.141 285.581 42.5529 285.581 42.8C285.581 43.1011 285.84 43.2516 286.365 43.2516V43.9901H280.516V43.2516H280.51ZM296.034 35.614L292.576 27.9764L288.704 35.614H296.034Z" fill="#3A181D"/>
<path d="M89.3076 56.772C89.3076 56.6328 89.2535 56.5305 89.1452 56.4595C89.037 56.3914 88.8518 56.3544 88.5868 56.3544H82.4472V58.6977H86.1623C86.4159 58.6977 86.6096 58.6636 86.7492 58.5926C86.8888 58.5244 86.9572 58.3427 86.9572 58.0529H87.2991V61.0012H86.9572C86.9572 60.7115 86.8888 60.5269 86.7492 60.4445C86.6096 60.3621 86.413 60.3224 86.1623 60.3224H82.4472V62.9298H88.7749C88.9657 62.9298 89.1196 62.8872 89.2393 62.7991C89.3589 62.7111 89.4187 62.5918 89.4187 62.4412H89.7606V65.0288H89.4187C89.4187 64.8385 89.3589 64.7334 89.2393 64.7078C89.1196 64.6823 88.9657 64.6709 88.7749 64.6709H79.9458V64.3301C80.0341 64.3301 80.1139 64.3017 80.1823 64.2448C80.2506 64.188 80.2877 64.1028 80.2877 63.9892V55.4143C80.2877 55.3007 80.2535 55.2155 80.1823 55.1587C80.1139 55.1019 80.0341 55.0735 79.9458 55.0735V54.7326H88.5868C88.8518 54.7326 89.037 54.6929 89.1452 54.6105C89.2535 54.5281 89.3076 54.4173 89.3076 54.281H89.6495V56.7748H89.3076V56.772Z" fill="#3A181D"/>
<path d="M93.3218 61.5518L93.5127 61.6456C93.5127 61.7592 93.5383 61.8586 93.5896 61.9466C93.6779 62.0972 93.8517 62.2449 94.111 62.3897C94.3702 62.5346 94.6665 62.6624 95.0027 62.776C95.336 62.8896 95.6865 62.9805 96.054 63.0487C96.4215 63.1169 96.7491 63.1538 97.0397 63.1538C97.2534 63.1538 97.5326 63.1367 97.8745 63.1055C98.2164 63.0742 98.5497 63.0089 98.8802 62.9067C99.2078 62.8073 99.4927 62.6681 99.732 62.492C99.9714 62.3159 100.091 62.083 100.091 61.7933C100.091 61.5036 99.9799 61.2905 99.7605 61.1514C99.5412 61.0122 99.2506 60.9128 98.8887 60.8503C98.5298 60.7878 98.1167 60.7452 97.658 60.7281C97.1993 60.7111 96.7263 60.6799 96.2449 60.6429C95.7634 60.606 95.2933 60.5435 94.8318 60.4526C94.3702 60.3646 93.96 60.2169 93.601 60.0095C93.242 59.8022 92.9514 59.5182 92.7292 59.1603C92.507 58.8024 92.3987 58.3338 92.3987 57.7543C92.3987 57.3652 92.4899 56.9789 92.6722 56.6012C92.8546 56.2234 93.1366 55.8911 93.5155 55.6014C93.8944 55.3117 94.3731 55.0759 94.9543 54.8941C95.5355 54.7124 96.2164 54.6215 96.9999 54.6215C97.6694 54.6215 98.2506 54.6726 98.7434 54.772C99.2363 54.8742 99.6637 54.9793 100.023 55.093C100.382 55.2066 100.686 55.3145 100.931 55.4139C101.179 55.5162 101.384 55.5644 101.547 55.5644C101.723 55.5644 101.849 55.5275 101.926 55.4508L102.154 55.6014L100.846 57.9617L100.658 57.885C100.632 57.7089 100.581 57.564 100.507 57.4504C100.404 57.2999 100.239 57.1522 100.006 57.0073C99.7719 56.8625 99.4956 56.7347 99.1822 56.621C98.866 56.5074 98.5269 56.4165 98.1594 56.3484C97.7919 56.2802 97.4272 56.2433 97.0597 56.2433C96.7805 56.2433 96.4927 56.266 96.1964 56.3086C95.9001 56.3512 95.6323 56.4194 95.3902 56.5074C95.1509 56.5955 94.9514 56.7119 94.7919 56.8568C94.6323 57.0016 94.5554 57.1806 94.5554 57.3965C94.5554 57.6975 94.6665 57.9248 94.8859 58.0753C95.1081 58.2258 95.3959 58.3394 95.7577 58.4161C96.1167 58.4928 96.5269 58.5411 96.9885 58.5667C97.45 58.5922 97.9201 58.6235 98.4016 58.6604C98.883 58.6973 99.3531 58.7655 99.8147 58.8592C100.276 58.9529 100.686 59.1035 101.045 59.3137C101.404 59.5239 101.695 59.8022 101.917 60.1544C102.139 60.5066 102.248 60.9667 102.248 61.5348C102.248 62.1909 102.074 62.7249 101.726 63.1396C101.379 63.5543 100.946 63.8837 100.427 64.1223C99.9087 64.3609 99.3503 64.5228 98.7491 64.6052C98.148 64.6876 97.5896 64.7273 97.0739 64.7273C96.3531 64.7273 95.7491 64.6876 95.2648 64.6052C94.7776 64.5228 94.3731 64.4234 94.0511 64.3041C93.7292 64.1848 93.4728 64.0769 93.2848 63.9832C93.0967 63.8894 92.9315 63.8411 92.7919 63.8411C92.7036 63.8411 92.6209 63.8923 92.544 63.9917L92.2791 63.8411L93.3218 61.5547V61.5518Z" fill="#3A181D"/>
<path d="M110.453 63.989C110.453 64.2162 110.593 64.3298 110.869 64.3298V64.6707H107.952V64.3298C108.04 64.3298 108.12 64.3014 108.188 64.2446C108.256 64.1878 108.293 64.1026 108.293 63.989V56.4707H105.168C105.054 56.4707 104.943 56.5019 104.838 56.5644C104.729 56.6269 104.678 56.7462 104.678 56.9223H104.336V54.278H104.678C104.678 54.4541 104.732 54.5733 104.838 54.6358C104.946 54.6983 105.057 54.7296 105.168 54.7296H113.581C113.695 54.7296 113.806 54.6983 113.912 54.6358C114.02 54.5733 114.074 54.4541 114.074 54.278H114.416V56.9223H114.074C114.074 56.7462 114.02 56.6269 113.912 56.5644C113.803 56.5019 113.695 56.4707 113.581 56.4707H110.456V63.989H110.453Z" fill="#3A181D"/>
<path d="M116.704 63.4405C116.704 63.0741 116.838 62.7617 117.103 62.4947C117.368 62.2305 117.684 62.097 118.049 62.097C118.414 62.097 118.73 62.2277 118.998 62.4947C119.263 62.7588 119.396 63.0741 119.396 63.4405C119.396 63.8069 119.265 64.1108 118.998 64.3579C118.733 64.605 118.416 64.7272 118.049 64.7272C117.681 64.7272 117.368 64.605 117.103 64.3579C116.838 64.1137 116.704 63.8069 116.704 63.4405Z" fill="#3A181D"/>
<path d="M137.111 64.9149H136.883C136.883 64.7757 136.823 64.7018 136.703 64.6876C136.584 64.6763 136.453 64.6678 136.316 64.6678H128.339C128.199 64.6678 128.085 64.6763 127.997 64.6962C127.909 64.716 127.866 64.7814 127.866 64.895H127.638V64.2161C127.638 63.5487 127.806 62.9749 128.139 62.4977C128.473 62.0206 128.894 61.5974 129.399 61.231C129.903 60.8646 130.447 60.5436 131.028 60.2681C131.609 59.9898 132.154 59.7171 132.658 59.4472C133.162 59.1774 133.584 58.8962 133.917 58.6065C134.25 58.3168 134.419 57.976 134.419 57.5868C134.419 57.3227 134.359 57.104 134.239 56.9364C134.119 56.766 133.966 56.6268 133.775 56.5217C133.587 56.4138 133.376 56.3428 133.151 56.3059C132.923 56.2689 132.701 56.249 132.487 56.249C132.273 56.249 132.005 56.286 131.692 56.3627C131.376 56.4394 131.074 56.553 130.783 56.7035C130.493 56.854 130.242 57.033 130.034 57.2432C129.826 57.4505 129.721 57.6863 129.721 57.9504C129.721 58.0129 129.735 58.0953 129.769 58.1947C129.8 58.2969 129.843 58.3651 129.892 58.402L129.701 58.5355L127.749 56.4564L127.937 56.3257C127.988 56.3513 128.04 56.3769 128.088 56.4024C128.139 56.428 128.196 56.4394 128.259 56.4394C128.336 56.4394 128.473 56.3456 128.675 56.1553C128.877 55.965 129.156 55.7577 129.51 55.5304C129.863 55.3032 130.305 55.0959 130.837 54.9084C131.367 54.7181 132 54.6244 132.732 54.6244C133.213 54.6244 133.684 54.6812 134.145 54.7948C134.607 54.9084 135.017 55.0874 135.376 55.3345C135.735 55.5816 136.025 55.894 136.248 56.2803C136.47 56.6637 136.578 57.1324 136.578 57.6891C136.578 58.2799 136.464 58.7713 136.236 59.1632C136.008 59.5552 135.709 59.8847 135.336 60.1545C134.963 60.4243 134.544 60.6544 134.077 60.8447C133.609 61.035 133.134 61.2196 132.646 61.4014C132.159 61.5832 131.692 61.7763 131.245 61.978C130.797 62.1796 130.401 62.4381 130.06 62.7534V62.9437H136.313C136.453 62.9437 136.581 62.9181 136.701 62.867C136.82 62.8159 136.88 62.6653 136.88 62.4125H137.108V64.9262L137.111 64.9149Z" fill="#3A181D"/>
<path d="M144.086 54.6188C144.818 54.6188 145.504 54.7437 146.14 54.9965C146.778 55.2493 147.333 55.6015 147.806 56.0531C148.279 56.5076 148.652 57.0416 148.923 57.6579C149.194 58.2743 149.331 58.9559 149.331 59.6973C149.331 60.4386 149.194 61.1203 148.923 61.7366C148.652 62.353 148.279 62.8869 147.806 63.3329C147.333 63.7788 146.775 64.1225 146.14 64.3611C145.501 64.5997 144.818 64.7189 144.086 64.7189C143.353 64.7189 142.667 64.5997 142.029 64.3611C141.39 64.1225 140.835 63.7788 140.362 63.3329C139.889 62.8869 139.516 62.353 139.245 61.7366C138.974 61.1203 138.838 60.4386 138.838 59.6973C138.838 58.9559 138.974 58.2743 139.245 57.6579C139.516 57.0416 139.889 56.5047 140.362 56.0531C140.835 55.5987 141.39 55.2465 142.029 54.9965C142.667 54.7437 143.35 54.6188 144.086 54.6188ZM144.086 56.2434C143.644 56.2434 143.234 56.3315 142.855 56.5076C142.476 56.6837 142.151 56.9251 141.88 57.2347C141.607 57.5443 141.393 57.9079 141.237 58.3311C141.08 58.7543 141 59.2087 141 59.7001C141 60.1915 141.08 60.6488 141.237 61.0691C141.393 61.4923 141.61 61.8559 141.88 62.1655C142.151 62.4751 142.476 62.7165 142.855 62.8926C143.234 63.0687 143.644 63.1568 144.086 63.1568C144.527 63.1568 144.937 63.0687 145.316 62.8926C145.695 62.7165 146.02 62.4751 146.293 62.1655C146.564 61.8559 146.781 61.4923 146.937 61.0691C147.094 60.6459 147.174 60.1915 147.174 59.7001C147.174 59.2087 147.094 58.7543 146.937 58.3311C146.778 57.9079 146.564 57.5443 146.293 57.2347C146.02 56.9251 145.695 56.6837 145.316 56.5076C144.937 56.3315 144.527 56.2434 144.086 56.2434Z" fill="#3A181D"/>
<path d="M160.268 64.9149H160.04C160.04 64.7757 159.98 64.7018 159.861 64.6876C159.741 64.6763 159.61 64.6678 159.473 64.6678H151.496C151.356 64.6678 151.242 64.6763 151.154 64.6962C151.066 64.716 151.02 64.7814 151.02 64.895H150.792V64.2161C150.792 63.5487 150.96 62.9749 151.294 62.4977C151.627 62.0206 152.049 61.5974 152.553 61.231C153.057 60.8646 153.601 60.5436 154.183 60.2681C154.764 59.9926 155.308 59.7171 155.812 59.4472C156.316 59.1774 156.738 58.8962 157.071 58.6065C157.405 58.3168 157.573 57.976 157.573 57.5868C157.573 57.3227 157.513 57.104 157.393 56.9364C157.274 56.7688 157.12 56.6268 156.929 56.5217C156.738 56.4138 156.53 56.3428 156.302 56.3059C156.074 56.2689 155.855 56.249 155.638 56.249C155.422 56.249 155.157 56.286 154.844 56.3627C154.527 56.4394 154.225 56.553 153.935 56.7035C153.644 56.854 153.396 57.033 153.185 57.2432C152.977 57.4505 152.872 57.6863 152.872 57.9504C152.872 58.0129 152.886 58.0953 152.92 58.1947C152.952 58.2969 152.992 58.3651 153.043 58.402L152.852 58.5355L150.9 56.4564L151.091 56.3257C151.143 56.3513 151.191 56.3769 151.242 56.4024C151.294 56.428 151.351 56.4394 151.413 56.4394C151.49 56.4394 151.627 56.3456 151.829 56.1553C152.032 55.965 152.308 55.7577 152.664 55.5304C153.017 55.3032 153.459 55.0959 153.992 54.9084C154.522 54.7181 155.154 54.6244 155.886 54.6244C156.365 54.6244 156.838 54.6812 157.299 54.7948C157.761 54.9084 158.171 55.0874 158.53 55.3345C158.889 55.5816 159.18 55.894 159.402 56.2803C159.624 56.6637 159.732 57.1324 159.732 57.6891C159.732 58.2799 159.618 58.7713 159.391 59.1632C159.163 59.5552 158.863 59.8847 158.49 60.1545C158.117 60.4243 157.698 60.6544 157.231 60.8447C156.764 61.035 156.285 61.2196 155.801 61.4014C155.314 61.5832 154.846 61.7763 154.399 61.978C153.952 62.1796 153.556 62.4381 153.214 62.7534V62.9437H159.467C159.607 62.9437 159.735 62.9181 159.855 62.867C159.975 62.8159 160.034 62.6653 160.034 62.4125H160.262V64.9262L160.268 64.9149Z" fill="#3A181D"/>
<path d="M162.9 62.969C162.687 62.969 162.524 62.9975 162.416 63.0543C162.308 63.1111 162.254 63.2218 162.254 63.3837H162.026V61.2677L166.895 55.9961C167.034 55.8455 167.16 55.7035 167.273 55.57C167.387 55.4365 167.444 55.3343 167.444 55.2576C167.444 55.1582 167.407 55.09 167.33 55.0588C167.254 55.0275 167.185 54.9934 167.122 54.9537V54.7264H170.798V54.9537C170.684 54.9537 170.59 54.9849 170.513 55.0474C170.436 55.1099 170.399 55.1979 170.399 55.3115V61.3387H171.006C171.168 61.3387 171.299 61.3131 171.393 61.262C171.487 61.2109 171.536 61.0859 171.536 60.8843H171.764V63.4349H171.536C171.536 63.2218 171.487 63.0883 171.393 63.0372C171.299 62.9861 171.168 62.9605 171.006 62.9605H170.399V63.9064C170.399 64.1194 170.439 64.2614 170.521 64.3324C170.604 64.4006 170.689 64.4375 170.778 64.4375V64.6647H167.917V64.4375C168.057 64.4375 168.177 64.4034 168.276 64.3324C168.379 64.2642 168.427 64.1222 168.427 63.9064V62.9605H162.895L162.9 62.969ZM168.433 56.6579L164.151 61.3415H168.433V56.6579Z" fill="#3A181D"/>
</svg>
