<?xml version="1.0" encoding="UTF-8"?>
<svg id="Layer_2" data-name="Layer 2" xmlns="http://www.w3.org/2000/svg" viewBox="0 0 1074.06 288.7">
  <defs>
    <style>
      .cls-1 {
        fill: #eeca99;
      }
    </style>
  </defs>
  <g id="Layer_1-2" data-name="Layer 1">
    <g>
      <g>
        <g>
          <path class="cls-1" d="M171.73,175.26c0,15.73-.02,31.71-.02,31.71l4.79,14.02h-26.22l4.87-14.07v-31.66h16.58Z"/>
          <path class="cls-1" d="M.14,127.79c-.22-9.74-.23-19.32.32-29.09C4.47,42.62,53.53-.5,109.24,0c51.26-.31,98.44,37.67,106.79,88.75,1.02,5.95,1.51,12.19,1.59,18.21l-.06,27.35h-17.35v-30.17s-.08-8.77-.57-13.02c-3.94-37.63-31.82-70.86-68.87-79.75C78.92-1.55,27.93,33.12,18.94,85.3c-.85,4.68-1.28,9.51-1.43,14.27-.02,5.92.22,12.09.19,18.06,0,2.68-.03,5.35-.09,8.01h115.29v8.67H62.57v72.57c-.23,0,4.87,14.11,4.87,14.11h-26.22s4.87-13.88,4.87-14.11v-72.57H.14v-6.52Z"/>
          <path class="cls-1" d="M217.74,166.71c0,7.8.02,15.99-.52,23.79-.85,10.46-3.25,20.85-7.13,30.58-21.66,53.76-82.78,80.41-137.22,61.6-27.29-9.44-50.55-29.83-62.83-56.1C2.88,211.57-.11,194.71.05,178.12l.12-27.66h17.35v4.33l.02,29.15c-1.83,51.37,39.12,96.25,91.21,96.08,49.69.54,90.57-41.49,91.46-90.47.05-7.47-.26-15.36-.17-22.83-.02-2.53.03-5.05.08-7.58h-115.23v-8.67h70.27v-44.82s.08-3.76.11-6.07c-.14-16.76-9-33.82-23.85-42.32-30.12-17.09-64.73,3.53-68.55,36.87-.49,3.68-.34,7.8-.29,11.52v3.87h-16.49v-3.87c.05-4.65.17-9.49,1.12-14.05,5.3-28.81,33.11-48.92,61.68-48.61,23.42-.17,46.87,13.2,57.1,34.74,3.14,6.58,5.05,13.84,5.52,21.15.09,1.83.15,3.74.22,6.76.03,1.8.03,21.89.03,44.82h45.79v4.59h.02c.12,3.88.18,7.78.18,11.66Z"/>
        </g>
        <g>
          <path class="cls-1" d="M83.73,242.39c0-.09-.03-.16-.08-.21-.06-.06-.2-.1-.43-.12v-.22h7.04c.51,0,.97.05,1.39.15s.78.25,1.09.45c.31.2.55.47.72.79.17.33.26.72.26,1.17,0,.55-.17,1-.5,1.34-.33.34-.76.56-1.28.67v.04c.63.17,1.14.44,1.54.79s.6.88.6,1.57c0,.37-.07.72-.21,1.05-.14.33-.36.62-.67.87-.3.25-.69.44-1.17.59-.47.15-1.04.22-1.69.22h-7.14v-.22c.23-.02.38-.06.43-.12s.08-.13.08-.21v-8.62ZM89.02,245.5c.39,0,.72,0,.98-.03s.46-.06.61-.12c.15-.06.25-.15.31-.26.06-.11.09-.26.09-.44s-.03-.33-.09-.44c-.06-.11-.17-.2-.31-.26-.15-.06-.35-.1-.61-.12s-.58-.03-.98-.03h-2.51v1.7h2.51ZM89.65,249.6c.67,0,1.13-.08,1.41-.25.27-.17.41-.45.41-.86s-.14-.69-.41-.86c-.27-.17-.74-.25-1.41-.25h-3.14v2.22h3.14Z"/>
          <path class="cls-1" d="M98.84,251.15c0,.06.02.11.06.14.04.03.13.05.27.05v.22h-3.27v-.22c.14-.02.23-.06.3-.12s.12-.16.18-.31c.03-.06.09-.23.19-.5.1-.27.23-.61.39-1.03.16-.41.34-.87.54-1.38.2-.5.39-1.02.59-1.54.2-.52.39-1.04.58-1.53.19-.5.36-.95.51-1.34.15-.39.27-.71.36-.96.09-.25.14-.38.14-.39,0-.06-.04-.1-.12-.13-.08-.02-.16-.04-.25-.05v-.22h4.83v.22c-.1.01-.18.03-.24.05-.06.03-.09.09-.09.19,0,.02.06.18.17.48s.27.68.45,1.16c.19.47.4,1.01.64,1.61.24.6.49,1.21.75,1.83s.51,1.23.75,1.82c.24.59.46,1.12.66,1.59.1.22.18.37.25.44.07.07.16.11.27.11v.22h-3.64v-.22c.23-.01.35-.09.35-.22,0-.01-.03-.1-.09-.25-.06-.15-.13-.33-.2-.52-.07-.19-.14-.37-.21-.55-.07-.17-.11-.29-.12-.35h-4.38c-.12.33-.22.6-.3.81-.07.21-.13.38-.17.5-.04.12-.07.21-.09.27-.02.06-.03.1-.03.12ZM103.33,247.97l-1.79-4.4-1.65,4.4h3.44Z"/>
          <path class="cls-1" d="M117.29,251.34c.11,0,.2,0,.26-.03s.09-.09.09-.21c0-.04-.06-.15-.17-.33-.11-.18-.25-.41-.42-.68-.17-.27-.36-.56-.57-.87-.21-.31-.41-.6-.59-.89s-.35-.53-.5-.74c-.15-.21-.25-.35-.3-.42l-1.81,1.63v2.22c0,.09.03.16.08.21s.2.1.43.12v.22h-3.81v-.22c.23-.02.38-.06.43-.12.06-.06.08-.13.08-.21v-8.62c0-.09-.03-.16-.08-.21-.05-.06-.2-.1-.43-.12v-.22h3.81v.22c-.23.02-.38.06-.43.12-.06.05-.08.13-.08.21v3.33h.13c.37-.36.77-.73,1.19-1.11.43-.38.82-.74,1.17-1.06.36-.33.66-.6.9-.83.24-.23.36-.37.36-.42,0-.11-.03-.18-.09-.19s-.14-.03-.24-.05v-.22h4.7v.22c-.12.01-.22.03-.3.05-.08.03-.15.06-.22.11-.07.05-.14.11-.22.18s-.18.15-.29.25l-3.2,2.75,3.77,5.64c.1.15.19.23.28.26.09.02.19.04.31.04v.22h-4.23v-.22Z"/>
          <path class="cls-1" d="M131.36,242.39c0-.09-.03-.16-.08-.21-.06-.06-.2-.1-.43-.12v-.22h3.81v.22c-.23.02-.38.06-.43.12s-.08.13-.08.21v4.96c0,.81-.13,1.5-.4,2.05-.26.55-.63,1-1.09,1.33-.46.33-1,.56-1.63.69s-1.29.19-1.99.19-1.37-.06-1.99-.19c-.62-.13-1.17-.36-1.63-.69-.46-.33-.83-.78-1.09-1.33-.26-.55-.4-1.24-.4-2.05v-4.96c0-.09-.03-.16-.08-.21-.06-.06-.2-.1-.43-.12v-.22h3.81v.22c-.23.02-.38.06-.43.12-.06.05-.08.13-.08.21v4.96c0,.71.2,1.23.61,1.54.41.31.98.46,1.72.46s1.31-.15,1.72-.46c.41-.31.61-.82.61-1.54v-4.96Z"/>
        </g>
      </g>
      <g>
        <g>
          <path class="cls-1" d="M277.93,152.28c1.25-.19,2.24-.82,2.96-1.88.72-1.06,1.42-2.26,2.1-3.61l26.74-56.23c.67-1.25,1.28-2.41,1.81-3.47.53-1.06.79-1.97.79-2.75,0-.96-.34-1.64-1.01-2.02-.67-.38-1.4-.67-2.17-.87v-2.6h24.43v2.6c-.67.19-1.35.46-2.02.79-.67.34-1.01,1.04-1.01,2.1,0,.77.17,1.54.51,2.31.34.77.84,1.78,1.52,3.04l30.07,58.83c.48,1.06,1.13,1.83,1.95,2.31.82.48,1.76.96,2.82,1.45v2.6h-25.44v-2.6c.38,0,.87-.14,1.45-.43s.87-.72.87-1.3c0-.96-.39-2.22-1.16-3.76l-5.49-10.7h-35.27l-5.2,10.26c-.96,2.02-1.45,3.47-1.45,4.34,0,1.06.92,1.59,2.75,1.59v2.6h-20.53v-2.6ZM332.42,125.39l-12.14-26.89-13.59,26.89h25.73Z"/>
          <path class="cls-1" d="M454.27,157.62c0-1.45-.46-2.26-1.37-2.46-.92-.19-2.1-.29-3.54-.29h-68.8v-2.6c2.89,0,4.34-.87,4.34-2.6v-65.62c0-1.73-1.45-2.6-4.34-2.6v-2.6h24.86v2.6c-2.7,0-4.05.87-4.05,2.6v57.53h47.99c1.45,0,2.62-.34,3.54-1.01.92-.67,1.37-1.59,1.37-2.75h2.6v19.8h-2.6Z"/>
          <path class="cls-1" d="M516.85,78.85c4.43,0,8.72.36,12.86,1.08,4.14.72,7.81,1.88,10.99,3.47,3.18,1.59,5.73,3.66,7.66,6.21,1.93,2.55,2.89,5.71,2.89,9.47,0,4.53-1.4,8.02-4.19,10.48-2.8,2.46-6.12,4.36-9.97,5.71v.29c4.53,1.35,8.36,3.49,11.49,6.43,3.13,2.94,4.7,7.16,4.7,12.65,0,2.89-.63,5.57-1.88,8.02-1.25,2.46-3.11,4.6-5.56,6.43-2.46,1.83-5.47,3.25-9.03,4.26-3.57,1.01-7.61,1.52-12.14,1.52h-53.05v-2.6c2.7,0,4.05-.87,4.05-2.6v-65.62c0-1.73-1.35-2.6-4.05-2.6v-2.6h45.24ZM519.75,108.62c4.34,0,7.93-.55,10.77-1.66,2.84-1.11,4.26-3.44,4.26-7.01s-1.42-5.9-4.26-7.01c-2.84-1.11-6.43-1.66-10.77-1.66h-27.61v17.34h27.61ZM519.75,141.58c6.07,0,10.43-.94,13.08-2.82,2.65-1.88,3.97-4.36,3.97-7.44s-1.33-5.56-3.97-7.44c-2.65-1.88-7.01-2.82-13.08-2.82h-27.61v20.53h27.61Z"/>
          <path class="cls-1" d="M597.22,81.45c-2.12,0-3.18.87-3.18,2.6v43.36c0,6.07,1.95,10.24,5.85,12.5,3.9,2.27,9.61,3.4,17.13,3.4s13.23-1.13,17.13-3.4c3.9-2.26,5.85-6.43,5.85-12.5v-43.36c0-1.73-1.45-2.6-4.34-2.6v-2.6h23.13v2.6c-2.31,0-3.47.87-3.47,2.6v42.64c0,5.69-.82,10.38-2.46,14.09-1.64,3.71-4.1,6.67-7.37,8.89-3.28,2.22-7.35,3.71-12.21,4.48-4.87.77-10.48,1.16-16.84,1.16s-11.97-.39-16.84-1.16c-4.87-.77-8.94-2.26-12.21-4.48-3.28-2.22-5.73-5.18-7.37-8.89-1.64-3.71-2.46-8.41-2.46-14.09v-42.64c0-1.73-1.35-2.6-4.05-2.6v-2.6h23.71v2.6Z"/>
          <path class="cls-1" d="M747.83,84.05c0-1.73-1.06-2.6-3.18-2.6v-2.6h22.26v2.6c-.68,0-1.28.22-1.81.65-.53.43-.79,1.08-.79,1.95v65.62c0,.87.26,1.52.79,1.95.53.43,1.13.65,1.81.65v2.6h-22.26v-2.6c2.12,0,3.18-.87,3.18-2.6v-27.17h-46.54v27.17c0,.87.26,1.52.79,1.95.53.43,1.13.65,1.81.65v2.6h-21.83v-2.6c1.83,0,2.75-.87,2.75-2.6v-65.62c0-1.73-.92-2.6-2.75-2.6v-2.6h21.83v2.6c-.67,0-1.28.22-1.81.65-.53.43-.79,1.08-.79,1.95v24.57h46.54v-24.57Z"/>
          <path class="cls-1" d="M783.82,152.28c1.25-.19,2.24-.82,2.96-1.88.72-1.06,1.42-2.26,2.1-3.61l26.74-56.23c.67-1.25,1.28-2.41,1.81-3.47.53-1.06.79-1.97.79-2.75,0-.96-.34-1.64-1.01-2.02-.67-.38-1.4-.67-2.17-.87v-2.6h24.43v2.6c-.67.19-1.35.46-2.02.79-.67.34-1.01,1.04-1.01,2.1,0,.77.17,1.54.51,2.31.34.77.84,1.78,1.52,3.04l30.07,58.83c.48,1.06,1.13,1.83,1.95,2.31.82.48,1.76.96,2.82,1.45v2.6h-25.44v-2.6c.38,0,.87-.14,1.45-.43s.87-.72.87-1.3c0-.96-.39-2.22-1.16-3.76l-5.49-10.7h-35.27l-5.2,10.26c-.96,2.02-1.45,3.47-1.45,4.34,0,1.06.92,1.59,2.75,1.59v2.6h-20.53v-2.6ZM838.32,125.39l-12.14-26.89-13.59,26.89h25.73Z"/>
          <path class="cls-1" d="M938.2,78.85c4.62,0,8.82.41,12.58,1.23,3.76.82,6.99,2.12,9.68,3.9,2.7,1.78,4.77,4.1,6.21,6.94,1.45,2.84,2.17,6.34,2.17,10.48,0,6.36-1.88,11.23-5.64,14.6-3.76,3.37-8.82,5.64-15.18,6.79l19.22,27.46c.67.96,1.47,1.54,2.38,1.73.92.19,1.76.29,2.53.29v2.6h-27.03v-2.6c.87,0,1.61-.14,2.24-.43.63-.29.94-.67.94-1.16s-.19-1.04-.58-1.66c-.39-.62-.96-1.47-1.73-2.53l-15.9-22.55h-20.67v25.73c0,.87.31,1.52.94,1.95.63.43,1.76.65,3.4.65v2.6h-25.01v-2.6c2.79,0,4.19-.87,4.19-2.6v-65.62c0-1.73-1.4-2.6-4.19-2.6v-2.6h49.43ZM934.44,112.67c3.47,0,6.36-.26,8.67-.79,2.31-.53,4.14-1.28,5.49-2.24,1.35-.96,2.31-2.1,2.89-3.4s.87-2.72.87-4.26-.29-2.96-.87-4.26-1.54-2.43-2.89-3.4c-1.35-.96-3.18-1.71-5.49-2.24-2.31-.53-5.2-.79-8.67-.79h-25.01v21.39h25.01Z"/>
          <path class="cls-1" d="M984.59,152.28c1.25-.19,2.24-.82,2.96-1.88.72-1.06,1.42-2.26,2.1-3.61l26.74-56.23c.67-1.25,1.28-2.41,1.81-3.47.53-1.06.79-1.97.79-2.75,0-.96-.34-1.64-1.01-2.02-.67-.38-1.4-.67-2.17-.87v-2.6h24.43v2.6c-.67.19-1.35.46-2.02.79-.67.34-1.01,1.04-1.01,2.1,0,.77.17,1.54.51,2.31.34.77.84,1.78,1.52,3.04l30.07,58.83c.48,1.06,1.13,1.83,1.95,2.31.82.48,1.76.96,2.82,1.45v2.6h-25.44v-2.6c.38,0,.87-.14,1.45-.43s.87-.72.87-1.3c0-.96-.39-2.22-1.16-3.76l-5.49-10.7h-35.27l-5.2,10.26c-.96,2.02-1.45,3.47-1.45,4.34,0,1.06.92,1.59,2.75,1.59v2.6h-20.53v-2.6ZM1039.08,125.39l-12.14-26.89-13.59,26.89h25.73Z"/>
        </g>
        <g>
          <path class="cls-1" d="M313.46,199.88c0-.49-.19-.85-.57-1.1-.38-.24-1.03-.37-1.96-.37h-21.55v8.25h13.04c.89,0,1.57-.12,2.06-.37.49-.24.73-.88.73-1.9h1.2v10.38h-1.2c0-1.02-.24-1.67-.73-1.96-.49-.29-1.18-.43-2.06-.43h-13.04v9.18h22.21c.67,0,1.21-.15,1.63-.46.42-.31.63-.73.63-1.26h1.2v9.11h-1.2c0-.67-.21-1.04-.63-1.13-.42-.09-.96-.13-1.63-.13h-30.99v-1.2c.31,0,.59-.1.83-.3.24-.2.37-.5.37-.9v-30.19c0-.4-.12-.7-.37-.9-.24-.2-.52-.3-.83-.3v-1.2h30.33c.93,0,1.58-.14,1.96-.43.38-.29.57-.68.57-1.16h1.2v8.78h-1.2Z"/>
          <path class="cls-1" d="M327.56,216.71l.67.33c0,.4.09.75.27,1.06.31.53.92,1.05,1.83,1.56.91.51,1.95.96,3.13,1.36,1.17.4,2.41.72,3.69.96,1.29.24,2.44.37,3.46.37.75,0,1.73-.06,2.93-.17,1.2-.11,2.37-.34,3.53-.7,1.15-.35,2.15-.84,2.99-1.46.84-.62,1.26-1.44,1.26-2.46s-.39-1.77-1.16-2.26c-.78-.49-1.8-.84-3.06-1.06-1.26-.22-2.71-.37-4.32-.43-1.62-.07-3.27-.17-4.96-.3-1.69-.13-3.34-.35-4.96-.67-1.62-.31-3.06-.83-4.32-1.56s-2.28-1.73-3.06-2.99c-.78-1.26-1.16-2.91-1.16-4.95,0-1.37.32-2.73.96-4.06s1.63-2.5,2.96-3.52c1.33-1.02,3.01-1.85,5.05-2.49,2.04-.64,4.43-.96,7.18-.96,2.35,0,4.39.18,6.12.53,1.73.36,3.23.73,4.49,1.13,1.26.4,2.33.78,3.19,1.13.87.36,1.58.53,2.16.53.62,0,1.06-.13,1.33-.4l.8.53-4.59,8.31-.67-.27c-.09-.62-.27-1.13-.53-1.53-.36-.53-.94-1.05-1.76-1.56-.82-.51-1.79-.96-2.89-1.36-1.11-.4-2.31-.72-3.59-.96-1.29-.24-2.57-.37-3.86-.37-.98,0-1.99.08-3.03.23-1.04.16-1.99.39-2.83.7-.84.31-1.54.72-2.1,1.23-.55.51-.83,1.14-.83,1.9,0,1.06.39,1.86,1.16,2.39.78.53,1.8.93,3.06,1.2,1.26.27,2.7.44,4.32.53,1.62.09,3.27.2,4.96.33,1.68.13,3.34.37,4.96.7,1.62.33,3.06.86,4.32,1.6s2.28,1.72,3.06,2.96c.77,1.24,1.16,2.86,1.16,4.86,0,2.31-.61,4.19-1.83,5.65-1.22,1.46-2.74,2.62-4.56,3.46-1.82.84-3.78,1.41-5.89,1.7-2.11.29-4.07.43-5.89.43-2.53,0-4.65-.14-6.35-.43-1.71-.29-3.13-.64-4.26-1.06-1.13-.42-2.03-.8-2.69-1.13-.67-.33-1.24-.5-1.73-.5-.31,0-.6.18-.86.53l-.93-.53,3.66-8.05Z"/>
          <path class="cls-1" d="M387.69,225.29c0,.8.49,1.2,1.46,1.2v1.2h-10.24v-1.2c.31,0,.59-.1.83-.3.24-.2.37-.5.37-.9v-26.47h-10.97c-.4,0-.79.11-1.16.33-.38.22-.57.64-.57,1.26h-1.2v-9.31h1.2c0,.62.19,1.04.57,1.26.38.22.76.33,1.16.33h29.53c.4,0,.79-.11,1.16-.33.38-.22.57-.64.57-1.26h1.2v9.31h-1.2c0-.62-.19-1.04-.57-1.26-.38-.22-.76-.33-1.16-.33h-10.97v26.47Z"/>
          <path class="cls-1" d="M409.63,223.36c0-1.29.47-2.39,1.4-3.33.93-.93,2.04-1.4,3.33-1.4s2.39.46,3.33,1.4c.93.93,1.4,2.04,1.4,3.33s-.46,2.36-1.4,3.23c-.93.87-2.04,1.3-3.33,1.3s-2.39-.43-3.33-1.3c-.93-.86-1.4-1.94-1.4-3.23Z"/>
          <path class="cls-1" d="M481.26,228.55h-.8c0-.49-.21-.75-.63-.8-.42-.04-.88-.07-1.36-.07h-28c-.49,0-.89.03-1.2.1-.31.07-.47.3-.47.7h-.8v-2.39c0-2.35.59-4.37,1.76-6.05,1.17-1.68,2.65-3.17,4.42-4.46,1.77-1.29,3.68-2.42,5.72-3.39,2.04-.98,3.95-1.94,5.72-2.89,1.77-.95,3.25-1.94,4.42-2.96,1.17-1.02,1.76-2.22,1.76-3.59,0-.93-.21-1.7-.63-2.29-.42-.6-.96-1.09-1.63-1.46-.67-.38-1.4-.63-2.19-.76-.8-.13-1.58-.2-2.33-.2s-1.69.13-2.79.4c-1.11.27-2.17.67-3.19,1.2-1.02.53-1.9,1.16-2.63,1.9s-1.1,1.56-1.1,2.49c0,.22.05.51.17.86.11.36.25.6.43.73l-.67.47-6.85-7.32.67-.46c.18.09.35.18.53.27.18.09.38.13.6.13.27,0,.75-.33,1.46-1,.71-.67,1.68-1.4,2.93-2.2,1.24-.8,2.79-1.53,4.66-2.19s4.08-1,6.65-1c1.68,0,3.34.2,4.96.6,1.62.4,3.06,1.03,4.32,1.9,1.26.87,2.28,1.97,3.06,3.33.78,1.35,1.16,3,1.16,4.96,0,2.08-.4,3.81-1.2,5.19-.8,1.38-1.85,2.54-3.16,3.49-1.31.95-2.78,1.76-4.42,2.43-1.64.67-3.32,1.32-5.02,1.96-1.71.64-3.35,1.32-4.92,2.03-1.57.71-2.96,1.62-4.16,2.73v.67h21.95c.49,0,.94-.09,1.36-.27.42-.18.63-.71.63-1.6h.8v8.85Z"/>
          <path class="cls-1" d="M505.74,192.3c2.57,0,4.98.44,7.22,1.33,2.24.89,4.19,2.13,5.85,3.72,1.66,1.6,2.97,3.48,3.92,5.65.95,2.17,1.43,4.57,1.43,7.18s-.48,5.01-1.43,7.18c-.95,2.17-2.26,4.05-3.92,5.62-1.66,1.57-3.62,2.78-5.85,3.62-2.24.84-4.64,1.26-7.22,1.26s-4.98-.42-7.22-1.26c-2.24-.84-4.19-2.05-5.85-3.62-1.66-1.57-2.97-3.45-3.92-5.62-.95-2.17-1.43-4.57-1.43-7.18s.48-5.01,1.43-7.18c.95-2.17,2.26-4.06,3.92-5.65,1.66-1.6,3.61-2.84,5.85-3.72,2.24-.89,4.64-1.33,7.22-1.33ZM505.74,198.02c-1.55,0-2.99.31-4.32.93s-2.47,1.47-3.42,2.56c-.95,1.09-1.71,2.37-2.26,3.86-.55,1.49-.83,3.09-.83,4.82s.28,3.34.83,4.82c.55,1.49,1.31,2.77,2.26,3.86.95,1.09,2.09,1.94,3.42,2.56,1.33.62,2.77.93,4.32.93s2.99-.31,4.32-.93c1.33-.62,2.47-1.47,3.42-2.56.95-1.09,1.71-2.37,2.26-3.86.55-1.49.83-3.09.83-4.82s-.28-3.33-.83-4.82c-.56-1.49-1.31-2.77-2.26-3.86-.95-1.09-2.09-1.94-3.42-2.56s-2.77-.93-4.32-.93Z"/>
          <path class="cls-1" d="M562.54,228.55h-.8c0-.49-.21-.75-.63-.8-.42-.04-.88-.07-1.36-.07h-28c-.49,0-.89.03-1.2.1-.31.07-.47.3-.47.7h-.8v-2.39c0-2.35.59-4.37,1.76-6.05,1.17-1.68,2.65-3.17,4.42-4.46,1.77-1.29,3.68-2.42,5.72-3.39,2.04-.98,3.95-1.94,5.72-2.89,1.77-.95,3.25-1.94,4.42-2.96,1.17-1.02,1.76-2.22,1.76-3.59,0-.93-.21-1.7-.63-2.29-.42-.6-.96-1.09-1.63-1.46-.67-.38-1.4-.63-2.19-.76-.8-.13-1.58-.2-2.33-.2s-1.69.13-2.79.4c-1.11.27-2.17.67-3.19,1.2-1.02.53-1.9,1.16-2.63,1.9s-1.1,1.56-1.1,2.49c0,.22.05.51.17.86.11.36.25.6.43.73l-.67.47-6.85-7.32.67-.46c.18.09.35.18.53.27.18.09.38.13.6.13.27,0,.75-.33,1.46-1,.71-.67,1.68-1.4,2.93-2.2,1.24-.8,2.79-1.53,4.66-2.19s4.08-1,6.65-1c1.68,0,3.34.2,4.96.6,1.62.4,3.06,1.03,4.32,1.9,1.26.87,2.28,1.97,3.06,3.33.78,1.35,1.16,3,1.16,4.96,0,2.08-.4,3.81-1.2,5.19-.8,1.38-1.85,2.54-3.16,3.49-1.31.95-2.78,1.76-4.42,2.43-1.64.67-3.32,1.32-5.02,1.96-1.71.64-3.35,1.32-4.92,2.03-1.57.71-2.96,1.62-4.16,2.73v.67h21.95c.49,0,.94-.09,1.36-.27.42-.18.63-.71.63-1.6h.8v8.85Z"/>
          <path class="cls-1" d="M571.78,221.7c-.75,0-1.32.1-1.7.3s-.57.59-.57,1.16h-.8v-7.45l17.09-18.56c.49-.53.93-1.03,1.33-1.5.4-.47.6-.83.6-1.1,0-.35-.13-.59-.4-.7-.27-.11-.51-.23-.73-.37v-.8h12.9v.8c-.4,0-.73.11-1,.33-.27.22-.4.53-.4.93v21.22h2.13c.58,0,1.03-.09,1.36-.27.33-.18.5-.62.5-1.33h.8v8.98h-.8c0-.75-.17-1.22-.5-1.4-.33-.18-.79-.27-1.36-.27h-2.13v3.33c0,.75.14,1.25.43,1.5.29.24.59.37.9.37v.8h-10.04v-.8c.49,0,.91-.12,1.26-.37.35-.24.53-.74.53-1.5v-3.33h-19.42ZM591.2,199.48l-15.03,16.49h15.03v-16.49Z"/>
        </g>
      </g>
    </g>
  </g>
</svg>