<svg width="85" height="111" viewBox="0 0 85 111" fill="none" xmlns="http://www.w3.org/2000/svg">
<path d="M66.6635 67.3867C66.6635 73.4348 66.6558 79.5789 66.6558 79.5789L68.5152 84.9695H58.3369L60.2274 79.5597V67.3867H66.6635Z" fill="#F7E7D0"/>
<path d="M0.0546701 49.1357C-0.0307311 45.3908 -0.034613 41.7074 0.17889 37.9509C1.73552 16.3887 20.78 -0.19059 42.4059 0.00165496C62.3044 -0.117537 80.619 14.4854 83.8604 34.1252C84.2563 36.4129 84.4466 38.8122 84.4776 41.1268L84.4543 51.6426H77.7193V40.0425C77.7193 40.0425 77.6882 36.6706 77.498 35.0365C75.9686 20.5681 65.1459 7.79144 50.7636 4.37332C30.6361 -0.594306 10.8424 12.736 7.35259 32.7987C7.02263 34.5981 6.85571 36.4552 6.79748 38.2854C6.78972 40.5616 6.88288 42.9339 6.87124 45.2293C6.87124 46.2598 6.85959 47.2863 6.8363 48.3091H51.5904V51.6426H24.2892V79.5451C24.1999 79.5451 26.1797 84.9703 26.1797 84.9703H16.0014C16.0014 84.9703 17.8919 79.6336 17.8919 79.5451V51.6426H0.0546701V49.1357Z" fill="#F7E7D0"/>
<path d="M84.5239 64.1004C84.5239 67.0994 84.5317 70.2484 84.322 73.2474C83.9921 77.2692 83.0604 81.264 81.5543 85.0051C73.1461 105.675 49.4201 115.922 28.2872 108.69C17.6936 105.06 8.66438 97.2204 3.89744 87.1198C1.11802 81.3486 -0.0426604 74.8661 0.0194495 68.4874L0.0660319 57.8524H6.80108V59.5172L6.80884 70.7251C6.09846 90.4764 21.9947 107.732 42.2154 107.667C61.5044 107.875 77.3735 91.7145 77.719 72.8821C77.7384 70.01 77.618 66.9764 77.653 64.1042C77.6452 63.1314 77.6646 62.1625 77.684 61.1898H32.9532V57.8562H60.2312V40.6233C60.2312 40.6233 60.2622 39.1777 60.2739 38.2895C60.2195 31.8454 56.7802 25.286 51.0156 22.0178C39.3234 15.4469 25.8882 23.3751 24.4054 36.194C24.2152 37.6089 24.2734 39.193 24.2928 40.6233V42.1113H17.8916V40.6233C17.911 38.8355 17.9576 36.9745 18.3264 35.2212C20.3837 24.1441 31.1792 16.412 42.2697 16.5311C51.3611 16.4658 60.4641 21.6064 64.4352 29.8884C65.6541 32.4183 66.3956 35.2097 66.578 38.0203C66.6129 38.724 66.6362 39.4583 66.6634 40.6195C66.6751 41.3116 66.6751 49.036 66.6751 57.8524H84.4501V59.6172H84.4579C84.5045 61.109 84.5278 62.6085 84.5278 64.1004H84.5239Z" fill="#F7E7D0"/>
<path d="M32.5026 93.1983C32.5026 93.1637 32.491 93.1368 32.4716 93.1175C32.4522 93.0945 32.3939 93.0791 32.3047 93.0714V92.9868H35.0375C35.2355 92.9868 35.414 93.006 35.5771 93.0445C35.7401 93.0829 35.8799 93.1406 36.0002 93.2175C36.1205 93.2944 36.2137 93.3982 36.2797 93.5213C36.3457 93.6443 36.3806 93.7981 36.3806 93.9711C36.3806 94.1826 36.3146 94.3556 36.1865 94.4863C36.0584 94.6171 35.8915 94.7016 35.6897 94.7439V94.7593C35.9342 94.8247 36.1322 94.9285 36.2875 95.0631C36.4427 95.1976 36.5204 95.4014 36.5204 95.6667C36.5204 95.809 36.4932 95.9436 36.4389 96.0704C36.3845 96.1973 36.2991 96.3088 36.1788 96.4049C36.0623 96.5011 35.9109 96.5741 35.7285 96.6318C35.546 96.6895 35.3248 96.7164 35.0724 96.7164H32.3008V96.6318C32.3901 96.6241 32.4483 96.6087 32.4677 96.5857C32.491 96.5626 32.4988 96.5357 32.4988 96.5049V93.1906L32.5026 93.1983ZM34.5561 94.3941C34.7075 94.3941 34.8356 94.3941 34.9366 94.3825C35.0375 94.3748 35.1151 94.3595 35.1734 94.3364C35.2316 94.3133 35.2704 94.2787 35.2937 94.2364C35.317 94.1941 35.3286 94.1364 35.3286 94.0672C35.3286 93.998 35.317 93.9404 35.2937 93.8981C35.2704 93.8558 35.2277 93.8212 35.1734 93.7981C35.119 93.775 35.0375 93.7596 34.9366 93.752C34.8356 93.7443 34.7075 93.7404 34.5561 93.7404H33.5818V94.3941H34.5561ZM34.8007 95.9705C35.0608 95.9705 35.2394 95.9397 35.3442 95.8743C35.449 95.809 35.5033 95.7013 35.5033 95.5437C35.5033 95.386 35.449 95.2784 35.3442 95.213C35.2394 95.1477 35.0569 95.1169 34.8007 95.1169H33.5818V95.9705H34.8007Z" fill="#F7E7D0"/>
<path d="M38.3678 96.5664C38.3678 96.5895 38.3756 96.6087 38.3911 96.6203C38.4067 96.6318 38.4416 96.6395 38.4959 96.6395V96.7241H37.2266V96.6395C37.2809 96.6318 37.3158 96.6164 37.343 96.5933C37.3663 96.5703 37.3896 96.5318 37.4129 96.4742C37.4245 96.4511 37.4478 96.3857 37.4866 96.2819C37.5255 96.1781 37.5759 96.0474 37.638 95.8859C37.7001 95.7282 37.77 95.5514 37.8477 95.3553C37.9253 95.163 37.9991 94.9631 38.0767 94.7632C38.1543 94.5632 38.2281 94.3633 38.3018 94.1749C38.3756 93.9826 38.4416 93.8096 38.4998 93.6597C38.558 93.5097 38.6046 93.3867 38.6396 93.2906C38.6745 93.1944 38.6939 93.1445 38.6939 93.1406C38.6939 93.1175 38.6784 93.1022 38.6473 93.0906C38.6163 93.0829 38.5852 93.0752 38.5503 93.0714V92.9868H40.4252V93.0714C40.3864 93.0752 40.3554 93.0829 40.3321 93.0906C40.3088 93.1022 40.2971 93.1252 40.2971 93.1637C40.2971 93.1714 40.3204 93.2329 40.3631 93.3482C40.4058 93.4636 40.4679 93.6097 40.5378 93.7942C40.6116 93.975 40.6931 94.1826 40.7862 94.4133C40.8794 94.644 40.9764 94.8785 41.0774 95.1169C41.1783 95.3553 41.2754 95.5898 41.3685 95.8167C41.4617 96.0435 41.5471 96.2473 41.6247 96.428C41.6635 96.5126 41.6946 96.5703 41.7218 96.5972C41.7489 96.6241 41.7839 96.6395 41.8266 96.6395V96.7241H40.4136V96.6395C40.5029 96.6356 40.5494 96.6049 40.5494 96.5549C40.5494 96.551 40.5378 96.5164 40.5145 96.4588C40.4912 96.4011 40.464 96.3319 40.433 96.2588C40.4058 96.1858 40.3786 96.1166 40.3515 96.0474C40.3243 95.982 40.3088 95.9359 40.3049 95.9128H38.6046C38.558 96.0397 38.5192 96.1435 38.4921 96.2242C38.4649 96.305 38.4416 96.3703 38.4222 96.4165C38.4028 96.4626 38.395 96.4972 38.3872 96.5203C38.3795 96.5434 38.3756 96.5587 38.3756 96.5664H38.3678ZM40.1108 95.3437L39.4159 93.652L38.7754 95.3437H40.1108Z" fill="#F7E7D0"/>
<path d="M45.5305 96.6395C45.5732 96.6395 45.6082 96.6395 45.6315 96.628C45.6548 96.6203 45.6664 96.5934 45.6664 96.5473C45.6664 96.5319 45.6431 96.4896 45.6004 96.4204C45.5577 96.3512 45.5034 96.2627 45.4374 96.1589C45.3714 96.0551 45.2938 95.9436 45.2161 95.8244C45.1346 95.7052 45.057 95.5937 44.9871 95.4822C44.9172 95.3746 44.8512 95.2784 44.793 95.1977C44.7348 95.117 44.6959 95.0631 44.6765 95.0362L43.9739 95.6629V96.5165C43.9739 96.5511 43.9856 96.578 44.005 96.5972C44.0283 96.6203 44.0826 96.6357 44.1758 96.6434V96.728H42.6968V96.6434C42.7861 96.6357 42.8443 96.6203 42.8637 96.5972C42.8831 96.5742 42.8948 96.5473 42.8948 96.5165V93.2022C42.8948 93.1676 42.8831 93.1407 42.8637 93.1214C42.8443 93.0984 42.7861 93.083 42.6968 93.0753V92.9907H44.1758V93.0753C44.0865 93.083 44.0283 93.0984 44.005 93.1214C43.9856 93.1407 43.9739 93.1714 43.9739 93.2022V94.4825H44.0244C44.168 94.3441 44.3233 94.2019 44.4863 94.0558C44.6532 93.9097 44.8046 93.7712 44.9444 93.6482C45.0841 93.5213 45.2006 93.4175 45.2938 93.3291C45.3869 93.2406 45.4335 93.1868 45.4335 93.1676C45.4335 93.1253 45.4219 93.0984 45.3986 93.0945C45.3753 93.0868 45.3442 93.083 45.3054 93.0753V92.9907H47.1299V93.0753C47.0833 93.0792 47.0445 93.0868 47.0134 93.0945C46.9824 93.1061 46.9552 93.1176 46.928 93.1368C46.9008 93.156 46.8737 93.1791 46.8426 93.206C46.8116 93.233 46.7727 93.2637 46.73 93.3022L45.4878 94.3595L46.9513 96.528C46.9901 96.5857 47.0251 96.6165 47.06 96.628C47.0949 96.6357 47.1338 96.6434 47.1803 96.6434V96.728H45.5383V96.6434L45.5305 96.6395Z" fill="#F7E7D0"/>
<path d="M50.9928 93.1983C50.9928 93.1637 50.9812 93.1368 50.9618 93.1175C50.9385 93.0945 50.8841 93.0791 50.791 93.0714V92.9868H52.27V93.0714C52.1807 93.0791 52.1224 93.0945 52.103 93.1175C52.0836 93.1368 52.072 93.1675 52.072 93.1983V95.1054C52.072 95.4168 52.0215 95.6821 51.9167 95.8936C51.8119 96.105 51.6721 96.2781 51.4936 96.4049C51.315 96.5318 51.1054 96.6203 50.8608 96.6702C50.6202 96.7202 50.3601 96.7433 50.0883 96.7433C49.8166 96.7433 49.5565 96.7202 49.3159 96.6702C49.0752 96.6203 48.8656 96.5318 48.6831 96.4049C48.5007 96.2781 48.3609 96.105 48.26 95.8936C48.1591 95.6821 48.1047 95.4168 48.1047 95.1054V93.1983C48.1047 93.1637 48.0931 93.1368 48.0737 93.1175C48.0542 93.0945 47.996 93.0791 47.9067 93.0714V92.9868H49.3857V93.0714C49.2964 93.0791 49.2382 93.0945 49.2188 93.1175C49.1955 93.1368 49.1878 93.1675 49.1878 93.1983V95.1054C49.1878 95.3784 49.2654 95.5783 49.4245 95.6975C49.5837 95.8167 49.805 95.8743 50.0922 95.8743C50.3795 95.8743 50.6008 95.8167 50.7599 95.6975C50.9191 95.5783 50.9967 95.3822 50.9967 95.1054V93.1983H50.9928Z" fill="#F7E7D0"/>
</svg>
